<svg width="83" height="31" viewBox="0 0 83 31" fill="none" xmlns="http://www.w3.org/2000/svg">
<path fill-rule="evenodd" clip-rule="evenodd" d="M0 15.9335C0 24.1631 6.73854 31.0001 15.1299 31.0001C23.5213 31.0001 30.2599 24.2897 30.2599 15.9335C30.2599 7.57719 23.5213 0.740234 15.1299 0.740234C6.73854 0.740234 0 7.7038 0 15.9335ZM5.21182 15.8072C5.21182 10.363 9.6618 5.93163 15.1289 5.93163C20.596 5.93163 25.1732 10.363 25.046 15.8072C25.046 21.2515 20.596 25.6828 15.1289 25.6828C9.6618 25.6828 5.21182 21.2515 5.21182 15.8072ZM49.8489 5.70591C48.1685 5.06721 47.0051 5.70591 46.2295 7.74975L42.2222 18.4799L37.9564 7.62201C37.6979 6.72783 37.1808 6.08913 36.5345 5.83365C35.8882 5.57817 35.2418 5.45043 34.4662 5.83365C33.6906 6.08913 33.3028 6.60009 33.1736 7.49427C33.0443 8.2607 33.0443 8.8994 33.4321 9.5381L39.7661 24.4837C40.1539 25.6333 41.0588 26.272 42.2222 26.272C43.3856 26.272 44.2905 25.6333 44.8075 24.3559L50.7538 9.15488C51.0123 8.38844 51.1416 7.74975 51.0123 7.11105C50.8831 6.47235 50.4953 5.96139 49.8489 5.70591ZM65.062 7.19514C63.5411 6.08507 61.5133 5.46836 59.1053 5.46836C57.2042 5.46836 55.6833 5.5917 54.2892 5.83838C52.7684 6.20841 52.0079 7.0718 52.0079 8.67524V22.7362C52.0079 23.4763 52.2614 24.093 52.6416 24.5863C53.1486 25.0797 53.7823 25.3264 54.5427 25.3264C55.4299 25.3264 56.0636 25.0797 56.4438 24.5863C56.9507 24.093 57.0775 23.4763 57.0775 22.7362V19.1593C57.7112 19.2826 58.3449 19.2826 58.9786 19.2826C61.3866 19.2826 63.2877 18.6659 64.8085 17.5559C66.3294 16.3224 67.0898 14.5957 67.0898 12.3755C67.3433 10.032 66.5829 8.30522 65.062 7.19514ZM61.0071 14.2257C60.5002 14.5958 59.7398 14.8424 58.9793 14.8424C58.4724 14.8424 57.8387 14.8424 57.3317 14.7191V9.90877C57.6486 9.90877 57.9337 9.87794 58.2189 9.8471C58.5041 9.81627 58.7892 9.78543 59.1061 9.78543C59.9932 9.78543 60.6269 10.0321 61.1339 10.4021C61.5141 10.8955 61.7676 11.5122 61.7676 12.2523C61.7676 13.1157 61.5141 13.7324 61.0071 14.2257ZM17.0203 19.3896V11.2787C17.0203 10.0114 16.4074 9.25098 14.9364 9.25098C14.3235 9.25098 13.8332 9.50444 13.3429 10.0114L11.0138 12.4193C10.6461 12.7995 10.4009 13.3064 10.4009 13.8134C10.4009 14.447 10.6461 14.9539 11.0138 15.3341C11.3816 15.5876 11.7493 15.7143 12.1171 15.7143C12.4081 15.7143 12.6223 15.635 12.8812 15.5391L12.8813 15.539C12.9496 15.5138 13.021 15.4873 13.0977 15.4609V19.3896C13.0977 20.0233 13.2203 20.5302 13.588 20.9104C13.8332 21.1638 14.3235 21.544 15.059 21.544C15.7945 21.544 16.2848 21.1638 16.53 20.9104C16.8977 20.4035 17.0203 19.8965 17.0203 19.3896ZM82.4738 16.9642C82.1029 16.2077 81.4846 15.5773 80.7426 15.0729C80.0007 14.5686 79.2588 14.1904 78.5169 13.8122L78.5168 13.8121C77.7748 13.4339 77.0329 13.1817 76.2909 12.9295C75.7917 12.8277 75.2925 12.5615 74.8583 12.33C74.7548 12.2748 74.655 12.2216 74.5597 12.173C74.0651 11.9209 73.8178 11.5426 73.8178 11.1644C73.8178 10.534 74.3124 10.2818 75.3017 10.2818C76.1673 10.2818 77.2802 10.534 78.5168 10.9122C80.4953 11.5426 81.7319 11.2905 82.2265 10.0296C82.4738 9.5253 82.4738 8.89488 82.2265 8.26447C81.9792 7.63405 81.4846 7.12972 80.8663 6.75147C79.3824 5.8689 77.6512 5.49065 75.549 5.49065C73.3231 5.49065 71.5919 5.99498 70.3553 7.00364C69.1188 8.0123 68.5005 9.5253 68.5005 11.4165C68.5005 12.2991 68.6241 13.1817 68.9951 13.9382C69.3661 14.6947 69.7371 15.199 70.3553 15.7034C70.85 16.2077 71.4683 16.5859 72.2102 16.9642C72.6943 17.2604 73.2543 17.4792 73.7713 17.6813C73.9146 17.7373 74.0546 17.792 74.1887 17.8468L76.0436 18.6033C76.5382 18.7293 76.9092 18.9815 77.4038 19.3597C77.7748 19.6119 77.8985 19.9902 77.8985 20.2423C77.8985 20.9988 77.2802 21.3771 75.92 21.3771H75.0543C74.807 21.3771 74.5597 21.3771 74.3124 21.251C74.1595 21.251 74.0539 21.2028 73.908 21.1363C73.8178 21.0951 73.7122 21.047 73.5704 20.9988C73.462 20.9435 73.3536 20.9125 73.2556 20.8844C73.13 20.8485 73.0216 20.8175 72.9522 20.7467C72.8757 20.7467 72.7521 20.6985 72.5812 20.6319C72.4756 20.5908 72.3519 20.5427 72.2102 20.4945C72.0685 20.4463 71.9449 20.3982 71.8393 20.3571L71.8392 20.357C71.6683 20.2905 71.5447 20.2423 71.4683 20.2423C69.9844 19.738 68.8714 19.9902 68.3768 21.1249C68.1295 21.7553 68.0058 22.3857 68.3768 23.1422C68.6241 23.8987 69.1188 24.4031 69.9844 24.9074C71.4683 25.79 73.3231 26.1682 75.549 26.1682C78.0221 26.1682 79.877 25.5378 81.1136 24.4031C82.3502 23.2683 82.9685 21.7553 82.9685 19.738C83.0921 18.7293 82.8448 17.8468 82.4738 16.9642Z" fill="url(#paint0_linear_4090_4702)"/>
<defs>
<linearGradient id="paint0_linear_4090_4702" x1="88.4251" y1="-1.16803" x2="-5.044" y2="-1.16803" gradientUnits="userSpaceOnUse">
<stop stop-color="#B7B7B7"/>
<stop offset="1" stop-color="#9A9A9A"/>
</linearGradient>
</defs>
</svg>
