<svg width="52" height="48" viewBox="0 0 52 48" fill="none" xmlns="http://www.w3.org/2000/svg">
<path id="vps" fill-rule="evenodd" clip-rule="evenodd" d="M5.1 0C2.29666 0 0 2.27533 0 5.05263V12.6316C0 14.1344 0.67195 15.4931 1.7332 16.421C0.666054 17.3491 0 18.7029 0 20.2105V27.7895C0 29.2923 0.67195 30.651 1.7332 31.579C0.666054 32.5071 0 33.8608 0 35.3684V42.9474C0 45.7247 2.29665 48 5.1 48H45.9C48.7034 48 51 45.7247 51 42.9474V35.3684C51 33.8608 50.3339 32.5071 49.2668 31.579C50.328 30.651 51 29.2923 51 27.7895V20.2105C51 18.7029 50.3339 17.3491 49.2668 16.421C50.328 15.4931 51 14.1344 51 12.6316V5.05263C51 2.27533 48.7033 0 45.9 0H5.1ZM5.1 2.52631H45.9C47.3348 2.52631 48.45 3.6312 48.45 5.05263V12.6316C48.45 14.053 47.3348 15.1579 45.9 15.1579H5.1C3.66525 15.1579 2.55 14.053 2.55 12.6316V5.05263C2.55 3.6312 3.66525 2.52631 5.1 2.52631ZM8.925 8.8421C8.925 6.76414 10.6526 5.05263 12.75 5.05263C14.8474 5.05263 16.575 6.76414 16.575 8.8421C16.575 10.9201 14.8474 12.6316 12.75 12.6316C10.6526 12.6316 8.925 10.9201 8.925 8.8421ZM12.75 7.57894C13.4693 7.57894 14.025 8.12955 14.025 8.8421C14.025 9.55465 13.4693 10.1053 12.75 10.1053C12.0307 10.1053 11.475 9.55465 11.475 8.8421C11.475 8.12955 12.0307 7.57894 12.75 7.57894ZM24.225 8.8421C24.225 8.14446 24.7958 7.57894 25.5 7.57894H39.525C40.2292 7.57894 40.8 8.14446 40.8 8.8421C40.8 9.53974 40.2292 10.1053 39.525 10.1053H25.5C24.7958 10.1053 24.225 9.53974 24.225 8.8421ZM45.9 17.6842C47.3348 17.6842 48.45 18.7891 48.45 20.2105V27.7895C48.45 29.2109 47.3348 30.3158 45.9 30.3158H5.1C3.66525 30.3158 2.55 29.2109 2.55 27.7895V20.2105C2.55 18.7891 3.66524 17.6842 5.1 17.6842H45.9ZM8.925 24C8.925 21.9221 10.6526 20.2105 12.75 20.2105C14.8474 20.2105 16.575 21.9221 16.575 24C16.575 26.078 14.8474 27.7895 12.75 27.7895C10.6526 27.7895 8.925 26.078 8.925 24ZM12.75 22.7369C13.4693 22.7369 14.025 23.2875 14.025 24C14.025 24.7126 13.4693 25.2632 12.75 25.2632C12.0307 25.2632 11.475 24.7126 11.475 24C11.475 23.2875 12.0307 22.7369 12.75 22.7369ZM24.225 24C24.225 23.3024 24.7958 22.7369 25.5 22.7369H39.525C40.2292 22.7369 40.8 23.3024 40.8 24C40.8 24.6977 40.2292 25.2632 39.525 25.2632H25.5C24.7958 25.2632 24.225 24.6977 24.225 24ZM45.9 32.8421C47.3348 32.8421 48.45 33.947 48.45 35.3684V42.9474C48.45 44.3688 47.3348 45.4737 45.9 45.4737H5.1C3.66525 45.4737 2.55 44.3688 2.55 42.9474V35.3684C2.55 33.947 3.66524 32.8421 5.1 32.8421H45.9ZM8.925 39.1579C8.925 37.0799 10.6526 35.3684 12.75 35.3684C14.8474 35.3684 16.575 37.0799 16.575 39.1579C16.575 41.2359 14.8474 42.9474 12.75 42.9474C10.6526 42.9474 8.925 41.2359 8.925 39.1579ZM12.75 37.8947C13.4693 37.8947 14.025 38.4454 14.025 39.1579C14.025 39.8704 13.4693 40.4211 12.75 40.4211C12.0307 40.4211 11.475 39.8704 11.475 39.1579C11.475 38.4454 12.0307 37.8947 12.75 37.8947ZM24.225 39.1579C24.225 38.4603 24.7958 37.8947 25.5 37.8947H39.525C40.2292 37.8947 40.8 38.4603 40.8 39.1579C40.8 39.8555 40.2292 40.4211 39.525 40.4211H25.5C24.7958 40.4211 24.225 39.8555 24.225 39.1579Z" fill="white"/>
</svg>
