<svg width="36" height="36" viewBox="0 0 36 36" fill="none" xmlns="http://www.w3.org/2000/svg">
<g id="ask">
<path id="Oval" fill-rule="evenodd" clip-rule="evenodd" d="M18 36C27.9411 36 36 27.9411 36 18C36 8.05887 27.9411 0 18 0C8.05887 0 0 8.05887 0 18C0 27.9411 8.05887 36 18 36Z" fill="#BBC0CB"/>
<path id="info" fill-rule="evenodd" clip-rule="evenodd" d="M23.9886 8.64047C23.8308 7.10209 22.4812 6.03171 20.6608 6.00051C18.1902 5.96211 16.4869 8.08368 17.4882 9.93164C18.28 11.3716 20.4187 12.0028 22.1138 11.2948C23.3519 10.7764 24.1028 9.71565 23.9886 8.64047ZM23.5429 27.7297C23.5726 27.6222 23.603 27.5121 23.6348 27.3985C23.4273 27.4663 23.2145 27.5208 22.9981 27.5617C22.3209 27.6727 21.635 27.7377 20.9465 27.7561C19.9588 27.7393 19.5534 27.3193 19.5316 26.4409C19.5173 26.2369 19.5319 26.0322 19.5752 25.8313C19.8781 24.6746 20.191 23.5202 20.5139 22.3682C20.6447 21.9044 20.7957 21.4452 20.9467 20.9859C21.3106 19.8789 21.6747 18.7716 21.7574 17.5995C21.8662 16.1163 21.0254 14.8468 19.4337 14.3668C18.566 14.1042 17.6413 14.022 16.7318 14.1268C15.441 14.2648 14.2547 14.6717 13.0559 15.0828C12.9001 15.1363 12.7442 15.1898 12.5877 15.2427C12.4713 15.2842 12.379 15.3656 12.332 15.4683C12.242 15.7426 12.1703 16.018 12.0937 16.3125C12.0637 16.4278 12.0329 16.5461 12 16.6683C12.0777 16.6493 12.1473 16.6348 12.2109 16.6215C12.3078 16.6013 12.3909 16.584 12.468 16.5579C13.2795 16.2678 14.1693 16.1927 15.0284 16.3419C15.5373 16.4259 15.8855 16.6851 15.94 17.1459C16.0215 17.5737 16.027 18.0102 15.9563 18.4395C15.7258 19.3717 15.4493 20.3012 15.1753 21.2225C15.0903 21.5084 15.0055 21.7936 14.9223 22.0778C14.8132 22.4514 14.6926 22.8224 14.572 23.1933C14.2147 24.2927 13.8576 25.3915 13.7986 26.5561C13.6848 27.8849 14.5584 29.1261 15.959 29.6257C17.0144 30.0124 18.1795 30.1021 19.2949 29.8825C20.2167 29.7024 21.1134 29.4181 22.01 29.1338C22.3679 29.0204 22.7258 28.9069 23.0852 28.8001C23.1758 28.7681 23.2476 28.7048 23.2838 28.6249C23.3751 28.3368 23.4558 28.0447 23.5429 27.7297Z" fill="white"/>
</g>
</svg>
