<svg width="140" height="124" viewBox="0 0 141 124" fill="none" xmlns="http://www.w3.org/2000/svg">
<path fill-rule="evenodd" clip-rule="evenodd" d="M139.144 34.3786C138.985 34.9536 138.811 35.5293 138.621 36.1037C138.442 36.6481 138.248 37.1904 138.043 37.732C137.846 38.2498 137.638 38.7656 137.418 39.2793C137.206 39.7746 136.985 40.2672 136.753 40.7564C136.528 41.2299 136.291 41.6993 136.048 42.1661C135.811 42.6212 135.565 43.0729 135.312 43.5198C135.063 43.9579 134.809 44.3933 134.545 44.8218C134.286 45.2422 134.018 45.6564 133.746 46.0666C133.476 46.472 133.201 46.8706 132.918 47.2644C132.64 47.6541 132.356 48.0383 132.065 48.4165C131.777 48.7905 131.485 49.1612 131.186 49.5229C130.888 49.882 130.585 50.2335 130.277 50.579C129.97 50.9237 129.658 51.2589 129.342 51.5887C129.026 51.9184 128.705 52.2393 128.38 52.5528C128.055 52.8668 127.725 53.1734 127.392 53.4705C127.328 53.527 127.266 53.5863 127.202 53.6422C127.025 53.7968 126.845 53.9454 126.666 54.0953C126.66 54.0993 126.654 54.1041 126.649 54.1089C126.558 54.1852 126.468 54.2649 126.376 54.3399C126.03 54.6219 125.679 54.891 125.327 55.1527C124.97 55.417 124.609 55.6691 124.247 55.9117C123.879 56.1576 123.508 56.3927 123.134 56.6155C123.043 56.6693 122.953 56.7279 122.862 56.781L121.999 57.2784L120.86 57.9359L119.721 58.5933L118.583 59.2508L117.444 59.9083L116.305 60.5657L115.167 61.2232L114.028 61.8807L112.889 62.5382L111.751 63.1956L110.611 63.8531L109.473 64.5106L108.334 65.1681L107.195 65.8255L106.057 66.483L104.918 67.1405H104.918L103.779 67.7979L102.641 68.4554L101.501 69.1129L100.363 69.7704L99.2245 70.4278L98.0854 71.0853L96.9469 71.7428L95.8084 72.4003L94.6692 73.0577L93.5307 73.7152L92.3916 74.3727L91.2531 75.0295L90.1146 75.6869L88.9754 76.3444L87.837 77.0019L86.6985 77.6594L85.5593 78.3168L84.4208 78.9743L83.2824 79.6318L82.1432 80.2892L81.0047 80.9467L79.8655 81.6042L78.7271 82.2617L77.5886 82.9191L76.4494 83.5766L75.3109 84.2341L74.1724 84.8915L73.0333 85.549L71.8948 86.2065L70.7563 86.864L69.6171 87.5214L68.4787 88.1789L67.3395 88.8364L66.201 89.4939L65.0625 90.1513L63.9234 90.8088L62.7849 91.4663L61.6464 92.1237L60.5072 92.7805L59.3687 93.438L58.2303 94.0955L57.0911 94.753L55.9526 95.4104L54.8135 96.0679L53.675 96.7254L52.5365 97.3828L51.3973 98.0403L50.2588 98.6978L49.1204 99.3553L47.9812 100.013L46.8427 100.67L45.897 101.216C45.8316 101.254 45.7669 101.287 45.7015 101.324C45.3091 101.544 44.9187 101.748 44.5324 101.929C44.1202 102.123 43.712 102.29 43.3087 102.438C42.8727 102.598 42.4434 102.731 42.0203 102.837C41.555 102.955 41.0978 103.041 40.6509 103.094C40.1419 103.155 39.6466 103.175 39.1656 103.152C38.5858 103.124 38.0271 103.038 37.495 102.888C36.9493 102.735 36.4294 102.518 35.9409 102.236C35.7522 102.127 35.5716 102.007 35.3952 101.881C33.7348 100.693 32.6188 98.7475 32.1296 96.226C31.9436 95.2653 31.8469 94.2229 31.8469 93.1055V93.1048C31.8469 92.3302 31.9089 91.5371 31.9988 90.7386C32.0751 90.0539 32.1841 89.3644 32.3218 88.6695C32.3456 88.5516 32.3667 88.4344 32.3919 88.3165C32.456 88.0147 32.5227 87.7136 32.5977 87.4111C32.6488 87.208 32.706 87.0043 32.7619 86.8013C32.9179 86.2262 33.0923 85.6526 33.2858 85.0789C33.4671 84.5407 33.6633 84.0051 33.8752 83.471C34.0775 82.9621 34.2901 82.4565 34.5183 81.9544C34.7377 81.4713 34.9632 80.9896 35.2058 80.5148C35.4395 80.0576 35.6861 79.6059 35.9402 79.1576C36.1876 78.7215 36.4492 78.2943 36.7149 77.8699C36.9758 77.4522 37.2443 77.0421 37.5216 76.6374C37.7948 76.2381 38.0707 75.8423 38.3589 75.4573C38.643 75.0771 38.934 74.7045 39.2317 74.34C39.5274 73.9782 39.8333 73.6307 40.1413 73.286C40.4492 72.9412 40.7606 72.606 41.0794 72.2803C41.3976 71.9547 41.7165 71.6297 42.0455 71.3238C42.376 71.0165 42.7139 70.7269 43.0539 70.4415C43.3973 70.1533 43.7461 69.8835 44.0984 69.6191C44.4533 69.3527 44.8117 69.0959 45.1748 68.8553C45.5271 68.6217 45.8793 68.3866 46.2377 68.1795C46.2547 68.1699 46.2711 68.1618 46.2874 68.1522C46.6792 67.9281 47.0675 67.7271 47.4532 67.5418C47.8626 67.3456 48.268 67.1711 48.67 67.0192C49.1006 66.8557 49.5278 66.716 49.9488 66.6043C50.408 66.4823 50.8618 66.3903 51.3087 66.3304C51.5247 66.3011 51.7387 66.2779 51.9512 66.2636L52.2783 66.2404L52.2578 65.7158C52.2531 65.6361 52.2476 65.5557 52.2476 65.4712C52.2476 65.427 52.2531 65.3813 52.2537 65.337C52.2606 64.5821 52.3266 63.8102 52.4397 63.0294C52.5338 62.3794 52.6618 61.7247 52.8247 61.0665C52.9684 60.484 53.1415 59.9015 53.335 59.3196C53.5128 58.7834 53.7104 58.2493 53.9277 57.7178H53.9284C54.1328 57.2184 54.3522 56.7231 54.5886 56.2326C54.8148 55.7645 55.0533 55.3019 55.306 54.8454C55.5506 54.4053 55.8068 53.9719 56.0739 53.5461C56.3348 53.1305 56.606 52.7238 56.8881 52.3252C57.164 51.9334 57.4495 51.5519 57.7445 51.1792C58.0354 50.8099 58.3352 50.4529 58.6425 50.1055C58.9491 49.7593 59.2618 49.4255 59.5827 49.1032C59.9036 48.7803 60.2306 48.471 60.5651 48.1753C60.9017 47.8762 61.2431 47.5921 61.5912 47.3236C61.9448 47.0504 62.3025 46.7943 62.6656 46.5544C62.93 46.38 63.1937 46.2029 63.4621 46.0482C63.5718 45.9848 63.6801 45.929 63.7891 45.8697C64.1884 45.6524 64.5849 45.4623 64.9774 45.2988C65.4045 45.1209 65.8263 44.9744 66.2426 44.8607C66.7052 44.7346 67.1617 44.644 67.6093 44.597C67.7912 44.5786 67.9718 44.565 68.1509 44.5595L68.3771 44.552L68.4582 44.3408C68.5264 44.163 68.604 43.9886 68.6735 43.8114C68.8772 43.295 69.083 42.7792 69.301 42.2682C69.5136 41.7716 69.7398 41.2803 69.9653 40.7891C70.1881 40.3047 70.4143 39.823 70.6493 39.344C70.881 38.8726 71.112 38.4018 71.3552 37.9364C71.593 37.4806 71.8437 37.033 72.0924 36.584C72.339 36.1384 72.5877 35.6956 72.8446 35.2575C73.0987 34.8242 73.3555 34.3936 73.6185 33.9684C73.8795 33.5474 74.1479 33.1345 74.417 32.7209C74.6848 32.3101 74.9512 31.8986 75.2278 31.4952C75.5017 31.096 75.7831 30.7056 76.0645 30.3152C76.3452 29.9262 76.6293 29.5419 76.9168 29.1617C77.2043 28.7829 77.4898 28.4027 77.7841 28.0335C78.0771 27.6649 78.3775 27.3092 78.6773 26.9508C78.9764 26.5925 79.2755 26.2348 79.5807 25.8859C79.886 25.5385 80.196 25.1978 80.5067 24.8606C80.8187 24.5226 81.1335 24.1929 81.451 23.8658C81.7685 23.5388 82.0839 23.2077 82.4069 22.8915C82.7312 22.5741 83.0623 22.2736 83.392 21.9677C83.7225 21.6618 84.0536 21.3579 84.3881 21.0643C84.7254 20.7686 85.0647 20.479 85.406 20.1969C85.7501 19.9115 86.0982 19.6396 86.4464 19.3691C86.7966 19.0966 87.1461 18.822 87.5004 18.5645C87.8595 18.3035 88.2219 18.0576 88.5844 17.8123C88.9509 17.5636 89.3182 17.3259 89.6874 17.0942H89.6881C90.0533 16.8653 90.4171 16.6302 90.785 16.4177C90.7925 16.4136 90.8007 16.4095 90.8082 16.4054C91.1945 16.1826 91.5795 15.9782 91.9637 15.7772C92.3596 15.5701 92.7527 15.378 93.1451 15.1933C93.5505 15.0032 93.9532 14.8247 94.3551 14.6585C94.7707 14.4868 95.1843 14.3246 95.5958 14.1788C96.0244 14.0262 96.4502 13.8845 96.8733 13.7605C97.3155 13.6304 97.7556 13.5132 98.1917 13.4144C98.6515 13.3095 99.1073 13.2216 99.5584 13.1521C100.039 13.0778 100.514 13.0261 100.984 12.9913C101.386 12.962 101.784 12.9423 102.176 12.9423C102.279 12.9423 102.379 12.9532 102.481 12.9552C103.022 12.9661 103.55 13.009 104.07 13.0772C104.653 13.1528 105.224 13.257 105.777 13.4049C106.221 13.5234 106.657 13.6597 107.08 13.8246C107.286 13.9056 107.488 13.9935 107.688 14.0841C108.519 14.4623 109.294 14.9317 110.015 15.4836C112.28 17.2203 113.983 19.7922 115.007 23.0816L115.188 23.6621L115.588 23.2043C115.67 23.1116 115.753 23.0251 115.834 22.9338C116.143 22.5877 116.455 22.2518 116.77 21.9248C117.088 21.5943 117.409 21.2734 117.733 20.9621C118.06 20.6473 118.39 20.3427 118.723 20.0484C119.06 19.7493 119.4 19.4618 119.742 19.1838C120.09 18.9024 120.439 18.6313 120.792 18.3717C121.15 18.108 121.51 17.8546 121.872 17.6141C122.242 17.3688 122.613 17.1337 122.986 16.913C123.058 16.8707 123.13 16.823 123.202 16.7815C123.515 16.6009 123.826 16.4333 124.135 16.2732C124.536 16.0661 124.933 15.8808 125.327 15.7084C125.742 15.5272 126.154 15.3589 126.562 15.2165C126.998 15.0625 127.429 14.9372 127.856 14.8281C128.315 14.711 128.769 14.6176 129.215 14.5515C129.706 14.4786 130.188 14.4364 130.661 14.4262C131.199 14.4153 131.723 14.4473 132.232 14.5181C132.844 14.604 133.436 14.745 134 14.9501C134.316 15.0652 134.622 15.2042 134.921 15.3575L134.531 15.4822C134.81 15.6001 135.082 15.7329 135.347 15.8794C135.369 15.8924 135.394 15.9012 135.418 15.9142L135.713 15.8195C135.894 15.9387 136.069 16.0661 136.239 16.1996C138.007 17.5854 139.229 19.7132 139.832 22.4214C140.062 23.4584 140.204 24.5771 140.249 25.7749C140.26 26.0576 140.268 26.3424 140.268 26.6334C140.268 27.1913 140.243 27.7568 140.204 28.3257C140.154 29.0561 140.074 29.794 139.963 30.5373C139.864 31.1995 139.741 31.8652 139.597 32.5336C139.463 33.1474 139.313 33.7627 139.144 34.3786ZM128.677 55.2794L129.682 55.8599L130.687 56.4397L131.692 57.0202L132.698 57.6006L133.669 58.1614C133.681 58.1682 133.691 58.1764 133.703 58.1832C134.141 58.4428 134.481 58.7541 134.708 59.0927C134.917 59.4048 135.032 59.74 135.032 60.08C135.032 60.4152 134.913 60.7327 134.708 61.0175C134.533 61.26 134.298 61.4787 133.996 61.6538L133.703 61.8228L132.698 62.4033L131.692 62.9837L130.687 63.5642L129.682 64.144L128.677 64.7245L127.671 65.305L126.666 65.8855L125.66 66.466L124.655 67.0464L123.65 67.6269L122.645 68.2074L121.639 68.7879L120.634 69.3677L119.629 69.9482L118.624 70.5287L117.618 71.1092L116.613 71.6896L115.608 72.2701L114.603 72.8506L113.597 73.4311L112.592 74.0116L111.586 74.5914L110.581 75.1719L109.576 75.7523L108.571 76.3328L107.565 76.9133L106.56 77.4938L105.555 78.0743L104.55 78.6548L103.544 79.2346L102.539 79.815L101.534 80.3955L100.529 80.976L99.5229 81.5565L98.518 82.137L97.5124 82.7175L96.5074 83.2979L95.5018 83.8784L94.4969 84.4582L93.4912 85.0387L92.4863 85.6192L91.4807 86.1997L90.4757 86.7802L89.4701 87.3606L88.4651 87.9411L87.4595 88.5216L86.4546 89.1021L85.4489 89.6819L84.444 90.2624L83.4384 90.8429L82.4334 91.4233L81.4278 92.0038L80.4229 92.5843L79.4172 93.1648L78.4123 93.7453L77.4067 94.3258L76.4017 94.9056L75.3961 95.4861L74.3911 96.0665L73.3855 96.647L72.3806 97.2275L71.3749 97.808L70.37 98.3885L69.3644 98.969L68.3594 99.5488L67.3538 100.129L66.3489 100.71L65.3432 101.29L64.3383 101.871L63.3327 102.451L62.3277 103.032L61.3221 103.612L60.3171 104.193L59.3115 104.772L58.3066 105.353L57.3009 105.933L56.296 106.514L55.2904 107.094L54.2854 107.675L53.2798 108.255L52.2749 108.836L51.2692 109.416L50.2643 109.996L49.2587 110.577L48.2537 111.157L47.2481 111.738L46.2431 112.318L45.2375 112.899L44.2326 113.479L43.2269 114.059L42.222 114.639L41.2164 115.22L40.2114 115.8L39.2058 116.381L38.2009 116.961L37.1952 117.542L36.1903 118.122L35.1847 118.703L34.1797 119.283L33.1741 119.863L32.1691 120.443L31.1635 121.024L30.1586 121.604L29.1529 122.185L28.9302 122.314C28.7033 122.444 28.4335 122.54 28.148 122.618C27.8332 122.705 27.4987 122.768 27.1424 122.793C26.814 122.815 26.4754 122.803 26.1374 122.773C25.7968 122.743 25.4582 122.695 25.1318 122.613C24.7721 122.523 24.4369 122.394 24.1269 122.242C24.0451 122.202 23.9565 122.169 23.8802 122.124L23.1212 121.686L22.1163 121.106L21.1107 120.525L20.1057 119.945L19.1001 119.365L18.0951 118.784L17.0895 118.204L16.0846 117.623L15.0789 117.044L14.074 116.463L13.0684 115.883L12.0634 115.302L11.0578 114.722L10.0529 114.141L9.04723 113.561L8.04229 112.981L7.03666 112.4L6.03171 111.82L5.02609 111.24L4.02114 110.66L3.01552 110.079L2.04464 109.518C2.03237 109.512 2.02215 109.504 2.01057 109.497C1.57112 109.237 1.23182 108.926 1.00495 108.587C0.79578 108.274 0.681319 107.94 0.681319 107.599C0.681319 107.265 0.799868 106.947 1.00495 106.662C1.18004 106.42 1.4151 106.201 1.7176 106.026L2.01057 105.857L3.01552 105.277L4.02114 104.696L5.02609 104.116L6.03171 103.535L7.03666 102.955L8.04229 102.375L9.04723 101.794L10.0529 101.214L11.0578 100.633L12.0634 100.053L13.0684 99.4725L14.074 98.892L15.0789 98.3122L16.0846 97.7317L17.0895 97.1512L18.0951 96.5707L19.1001 95.9902L20.1057 95.4097L21.1107 94.8293L21.469 94.6228L22.5503 95.2503L23.8032 95.978L25.0569 96.7056L26.3098 97.4333L27.5634 98.1602L28.8164 98.8879L30.07 99.6155L31.3236 100.342L32.5766 101.07L33.8302 101.798L34.2983 102.07C34.1341 101.904 33.9815 101.722 33.8302 101.538C33.5958 101.253 33.3717 100.954 33.1693 100.627L32.5766 100.283L31.3236 99.5549L30.07 98.8279L28.8164 98.1003L27.5634 97.3726L26.3098 96.645L25.0569 95.9173L23.8032 95.1904L22.5503 94.4627L22.149 94.2297L22.1163 94.2106L21.4704 93.8359L21.2967 93.7351L20.0437 93.0074L18.7908 92.2798L17.5371 91.5528L16.2835 90.8251L15.2472 90.2235L15.0306 90.0948L14.7301 89.917C14.3922 89.7166 14.0754 89.4864 13.7769 89.2309C13.3075 88.8268 12.8905 88.3526 12.524 87.8185C11.9939 87.0466 11.5729 86.1472 11.2704 85.1293C10.895 83.8641 10.6987 82.4211 10.6987 80.8288C10.6987 79.2339 10.9059 77.5762 11.2704 75.9043C11.5763 74.5035 11.996 73.0945 12.524 71.6985C12.8919 70.7262 13.3143 69.7635 13.7769 68.8152C14.166 68.0187 14.5816 67.2338 15.0306 66.4666C15.4257 65.7921 15.8468 65.136 16.2835 64.4915C16.6848 63.8994 17.1038 63.3244 17.5371 62.7637C17.9425 62.2397 18.3602 61.7328 18.7908 61.2409C19.1982 60.7749 19.6158 60.3259 20.0437 59.8926C20.4532 59.4784 20.8708 59.0798 21.2967 58.6989C21.7082 58.3317 22.1251 57.9788 22.5503 57.6456C22.9632 57.322 23.3794 57.0106 23.8032 56.7224C24.2175 56.441 24.6338 56.1706 25.0569 55.9253C25.0678 55.9192 25.0787 55.911 25.0896 55.9042C25.4997 55.6677 25.9058 55.4579 26.3098 55.2637C26.7315 55.0614 27.1492 54.8829 27.5634 54.7282C27.9852 54.5701 28.4035 54.4332 28.8164 54.3249C29.2395 54.2131 29.6578 54.1266 30.07 54.0673C30.316 54.0319 30.5605 54.004 30.8031 53.9876L31.1301 53.9651L31.1097 53.4398C31.1049 53.3601 31.0995 53.2804 31.0995 53.1966C31.0995 52.3163 31.1778 51.4115 31.3236 50.4959C31.5628 48.9908 31.9954 47.4565 32.5766 45.946C32.9377 45.0085 33.3574 44.0819 33.8302 43.1771C34.2151 42.4386 34.6328 41.715 35.0831 41.0153C35.4776 40.4014 35.898 39.8101 36.3361 39.2364C36.7381 38.7111 37.1564 38.2062 37.5897 37.7225C37.9958 37.2687 38.4121 36.8306 38.8433 36.4191C39.2514 36.0294 39.6684 35.6561 40.0963 35.3099C40.5058 34.9781 40.9255 34.6736 41.3499 34.3861C41.6681 34.1708 41.9883 33.9609 42.314 33.7729C42.4107 33.717 42.5068 33.668 42.6029 33.6155C43.0246 33.3845 43.4422 33.1835 43.8565 33.0125C44.2789 32.8374 44.6965 32.6937 45.1094 32.5813C45.5332 32.4668 45.9515 32.383 46.3631 32.3346C46.5777 32.3101 46.7916 32.291 47.0028 32.2842L47.229 32.2774L47.3101 32.0655C47.4068 31.8134 47.5158 31.5647 47.616 31.3133C48.0078 30.3322 48.4254 29.36 48.8689 28.3986C49.2689 27.5334 49.6838 26.6749 50.1226 25.8294C50.5259 25.0513 50.9415 24.2814 51.3762 23.5238C51.7816 22.8159 52.1985 22.1169 52.6291 21.4281C53.0359 20.7781 53.4549 20.1377 53.8828 19.5061C54.2909 18.9038 54.7099 18.3124 55.1357 17.7292C55.5452 17.1685 55.9642 16.62 56.3893 16.0784C56.8002 15.5544 57.2185 15.0428 57.6423 14.5386C58.0545 14.048 58.4721 13.5684 58.8959 13.0976C59.3088 12.6377 59.7258 12.186 60.1489 11.7465C60.5631 11.3159 60.9794 10.8888 61.4025 10.4779C61.8154 10.0766 62.2344 9.68827 62.6554 9.30742C63.0697 8.93201 63.488 8.57295 63.9091 8.21799C64.324 7.86779 64.7416 7.52781 65.162 7.19873C65.5783 6.87238 65.9946 6.55012 66.4156 6.24489C66.8312 5.94374 67.2489 5.65487 67.6686 5.37484C68.0842 5.09755 68.5025 4.83865 68.9222 4.58315C69.1607 4.43735 69.3971 4.28065 69.6369 4.14234C69.8168 4.03878 69.996 3.94748 70.1751 3.84801C70.5942 3.61636 71.0118 3.39629 71.4288 3.18985C71.8485 2.98205 72.2661 2.78583 72.6817 2.60392C73.1021 2.41996 73.5197 2.24827 73.9353 2.09021C74.3557 1.93078 74.7734 1.78429 75.1883 1.65144C75.6093 1.51722 76.027 1.39662 76.4419 1.28966C76.863 1.18201 77.2806 1.08799 77.6949 1.00827C78.1173 0.927195 78.5349 0.861789 78.9485 0.81069C79.3709 0.75891 79.7886 0.7228 80.2014 0.70236C80.6252 0.681239 81.0429 0.677833 81.4551 0.689415C81.8795 0.701679 82.2965 0.732338 82.708 0.780031C83.1338 0.828404 83.5515 0.897217 83.9616 0.983745C84.3881 1.07368 84.8058 1.18269 85.2146 1.31282C85.6418 1.44977 86.0615 1.60238 86.4682 1.78361C86.8988 1.97574 87.3158 2.19649 87.7211 2.43904C87.9712 2.58825 88.2192 2.74018 88.459 2.90847L88.9748 3.27025L89.5621 3.68177L89.466 3.48964L90.2277 3.92977L91.4813 4.65401L92.7343 5.37825L93.9879 6.10249L95.2409 6.82673L96.4945 7.55098L97.3018 8.01768L97.4865 7.85348C97.573 7.77649 97.6609 7.707 97.7474 7.63137C98.163 7.26823 98.5814 6.92416 99.0011 6.5944C99.4173 6.26737 99.835 5.95873 100.254 5.66577C100.672 5.37416 101.089 5.09959 101.508 4.84273C101.69 4.731 101.872 4.61109 102.054 4.50616C102.29 4.36922 102.526 4.24249 102.761 4.11781C103.182 3.89434 103.599 3.69062 104.014 3.50531C104.436 3.3159 104.854 3.14625 105.267 2.99636C105.69 2.84374 106.108 2.71293 106.521 2.6012C106.944 2.48673 107.362 2.39203 107.774 2.32117C108.199 2.24827 108.617 2.20194 109.027 2.17469C109.453 2.14744 109.871 2.14131 110.28 2.16379C110.708 2.18695 111.126 2.23805 111.534 2.3164C111.965 2.39953 112.381 2.51535 112.787 2.65979C113.221 2.81445 113.639 3.00454 114.04 3.22937C114.104 3.2648 114.17 3.29546 114.233 3.33293L114.951 3.75603L114.948 3.74377L115.293 3.94476L116.547 4.67309L117.8 5.40142L119.054 6.12975L120.307 6.85739L121.56 7.58572L122.813 8.31405L124.067 9.04238L125.32 9.77003L126.573 10.4984L127.826 11.2267L129.08 11.955L130.333 12.6827L131.586 13.411L132.33 13.843C132.158 13.8191 131.984 13.8 131.809 13.785C131.309 13.7414 130.798 13.7333 130.276 13.7612C129.808 13.7857 129.333 13.8355 128.848 13.9179C128.406 13.9922 127.957 14.0937 127.503 14.2163C127.079 14.3308 126.65 14.4643 126.217 14.6197C125.81 14.7661 125.399 14.9324 124.985 15.115C124.59 15.2894 124.193 15.4747 123.794 15.6818C123.484 15.8419 123.174 16.0116 122.862 16.1915C122.789 16.233 122.718 16.28 122.646 16.323C122.271 16.5437 121.9 16.7781 121.531 17.0227C121.168 17.2625 120.807 17.5146 120.449 17.7776C120.095 18.0365 119.745 18.3056 119.397 18.5856C119.054 18.8622 118.713 19.1477 118.374 19.4448C118.041 19.7377 117.709 20.0395 117.38 20.3523C117.056 20.6616 116.733 20.9791 116.414 21.3082C116.098 21.6332 115.784 21.9656 115.474 22.309C115.473 22.3097 115.473 22.3104 115.472 22.3111C115.471 22.307 115.469 22.3029 115.468 22.2988C114.672 19.983 113.536 18.0276 112.103 16.4708C111.249 15.5435 110.289 14.7586 109.23 14.1257C108.627 13.7653 107.994 13.4505 107.327 13.1903C107.263 13.165 107.197 13.1466 107.133 13.1221C106.962 13.0588 106.79 12.9988 106.617 12.9423C106.189 12.8039 105.753 12.6861 105.307 12.59C104.764 12.4735 104.208 12.3856 103.64 12.3318C103.131 12.2841 102.612 12.2671 102.086 12.2705C101.599 12.2732 101.107 12.293 100.607 12.3386C100.142 12.3808 99.6708 12.4442 99.1959 12.5239C98.7469 12.5995 98.2938 12.6936 97.838 12.8019C97.6418 12.8482 97.447 12.8898 97.2494 12.9423C97.0089 13.0063 96.7656 13.0819 96.5231 13.1548C96.1007 13.2822 95.6755 13.4212 95.2477 13.5752C94.8362 13.7237 94.4226 13.8832 94.007 14.0569C93.6057 14.2245 93.203 14.4023 92.799 14.5931C92.4066 14.7784 92.0135 14.9733 91.6197 15.1804C91.2361 15.3814 90.8525 15.5933 90.4675 15.8147C90.46 15.8195 90.4519 15.8235 90.4444 15.8276C90.0765 16.0402 89.712 16.2746 89.3468 16.5035C88.9775 16.7352 88.6089 16.9722 88.2424 17.2202C87.8799 17.4655 87.5174 17.7115 87.1584 17.9724C86.8041 18.2293 86.4539 18.5025 86.103 18.7743C85.7542 19.0441 85.4053 19.3146 85.0606 19.5981C84.7186 19.8794 84.38 20.1697 84.042 20.4647C83.7061 20.757 83.3743 21.0588 83.0432 21.364C82.7128 21.6679 82.381 21.967 82.056 22.2838H82.0553C81.7324 22.5979 81.4162 22.9283 81.098 23.2547C80.7799 23.5797 80.4631 23.9067 80.1503 24.2433C79.8383 24.5792 79.5296 24.9205 79.2231 25.2666C78.9165 25.6127 78.6153 25.9677 78.3155 26.324C78.0151 26.6804 77.7112 27.0326 77.4176 27.3992C77.1226 27.7671 76.8371 28.1472 76.5489 28.5247C76.26 28.9021 75.9732 29.2823 75.6918 29.6686H75.6911C75.4084 30.057 75.1283 30.4487 74.8524 30.8459C74.5751 31.2459 74.3053 31.6533 74.0362 32.0614C73.7657 32.4716 73.4938 32.8797 73.2315 33.2973C72.9665 33.7204 72.711 34.1517 72.4548 34.5823C72.1966 35.017 71.9438 35.4551 71.6952 35.8966C71.4444 36.3421 71.1924 36.7864 70.9519 37.2381C70.7066 37.7 70.4749 38.1694 70.2412 38.6375C70.0041 39.111 69.7725 39.5859 69.5477 40.0655C69.3194 40.5527 69.0918 41.0398 68.8765 41.5324C68.6551 42.0393 68.4487 42.551 68.2416 43.0627C68.1298 43.3386 68.0099 43.6118 67.9023 43.8891C67.6829 43.9021 67.4621 43.9266 67.24 43.9579C66.7965 44.0199 66.3461 44.1194 65.8917 44.2523C65.4761 44.3735 65.0571 44.5241 64.634 44.704C64.2415 44.8709 63.8464 45.063 63.4485 45.2797C63.3395 45.339 63.2311 45.3955 63.1215 45.4582C62.853 45.6135 62.5893 45.7913 62.325 45.9644C61.9618 46.2035 61.6035 46.4597 61.2492 46.7309C60.9004 46.9986 60.5576 47.2807 60.2197 47.5771C59.8845 47.8714 59.5554 48.1773 59.2325 48.4975C58.9109 48.8171 58.5955 49.1468 58.2868 49.4895C57.9782 49.8336 57.6757 50.1859 57.382 50.551C57.085 50.919 56.7961 51.295 56.5168 51.682C56.2326 52.0752 55.9574 52.4751 55.6924 52.8852C55.4219 53.3043 55.1609 53.7301 54.9122 54.1634C54.6561 54.611 54.4115 55.0648 54.1798 55.5247C53.9386 56.0043 53.7131 56.4894 53.5012 56.9786C53.2771 57.4964 53.074 58.0176 52.8853 58.5415C52.6823 59.1064 52.5058 59.6725 52.3471 60.2387C52.172 60.8642 52.0262 61.4883 51.9083 62.1096C51.7734 62.8264 51.6719 63.5377 51.6194 64.2381C51.5881 64.653 51.5663 65.0652 51.5663 65.4712C51.5663 65.5196 51.5676 65.5659 51.5697 65.6116C51.3619 65.6327 51.1527 65.662 50.9429 65.6961C50.4993 65.7669 50.0504 65.8671 49.5966 65.9945C49.1769 66.1124 48.7524 66.2561 48.3253 66.4217C47.9233 66.577 47.5193 66.7528 47.1118 66.9497C46.7255 67.1371 46.3378 67.3387 45.9475 67.5622H45.9468C45.9304 67.5724 45.9141 67.5806 45.897 67.5901C45.5373 67.7973 45.1823 68.0228 44.8294 68.2558C44.4656 68.4963 44.1045 68.7477 43.7482 69.0134C43.3966 69.2757 43.0491 69.5523 42.7064 69.8385C42.3658 70.1226 42.0292 70.4169 41.6981 70.7222C41.3683 71.026 41.0426 71.3394 40.7231 71.6631C40.4036 71.986 40.0902 72.3205 39.7815 72.6619C39.4722 73.0039 39.1663 73.3521 38.8692 73.7111C38.5695 74.0729 38.2785 74.4449 37.9917 74.8217C37.7021 75.2018 37.4187 75.5875 37.1435 75.9819C36.8641 76.3826 36.5943 76.7907 36.3306 77.2036C36.0622 77.6239 35.8006 78.0491 35.5492 78.481C35.2916 78.9232 35.045 79.3722 34.8072 79.8246C34.5619 80.2892 34.3248 80.758 34.1007 81.2315C33.8684 81.7241 33.651 82.2221 33.4432 82.7215C33.2259 83.2434 33.0222 83.7681 32.8334 84.2954C32.6331 84.852 32.4485 85.4114 32.2822 85.9708C32.1208 86.5131 31.975 87.0561 31.8469 87.5977C31.8326 87.657 31.8196 87.7163 31.806 87.7756C31.7978 87.811 31.791 87.8464 31.7828 87.8812C31.7161 88.1796 31.6534 88.478 31.5968 88.7751C31.5348 89.1028 31.4796 89.4291 31.4306 89.7548C31.3168 90.5056 31.2391 91.2503 31.1996 91.9848C31.1792 92.3608 31.1656 92.7349 31.1656 93.1048C31.1656 93.6431 31.1894 94.1643 31.2316 94.6698C31.3284 95.8281 31.5355 96.8984 31.8469 97.8679C32.5657 100.105 33.8377 101.808 35.6003 102.826C35.7536 102.914 35.9164 102.981 36.0745 103.058C36.6672 103.346 37.294 103.553 37.9522 103.68C38.0939 103.707 38.2336 103.74 38.3787 103.76C38.765 103.813 39.1588 103.847 39.5628 103.847C39.5642 103.847 39.5649 103.846 39.5662 103.846C39.9675 103.846 40.379 103.812 40.796 103.76C40.8703 103.75 40.9445 103.744 41.0195 103.733C41.4623 103.668 41.9147 103.57 42.3726 103.447C42.795 103.333 43.2222 103.202 43.6555 103.039C44.0568 102.888 44.4629 102.709 44.8717 102.516C45.2593 102.333 45.649 102.133 46.0415 101.912C46.1069 101.875 46.1723 101.843 46.2377 101.806L47.1827 101.26L48.3218 100.603L49.4603 99.9453L50.5995 99.2878L51.738 98.6303L52.8765 97.9729L54.0156 97.3154L55.1541 96.6579L56.2926 96.0005L57.4318 95.343L58.5702 94.6855L59.7094 94.028L60.8479 93.3706L61.9864 92.7131L63.1255 92.0556L64.264 91.3981L65.4025 90.7407L66.5417 90.0832L67.6802 89.4257L68.8186 88.7682L69.9578 88.1108L71.0963 87.4533L72.2355 86.7958L73.3739 86.1384L74.5124 85.4809L75.6516 84.8234L76.7901 84.1659L77.9286 83.5085L79.0677 82.8517L80.2062 82.1942L81.3454 81.5367L82.4838 80.8793L83.6223 80.2218L84.7615 79.5643L85.9 78.9068L87.0385 78.2494L88.1776 77.5919L89.3161 76.9344L90.4546 76.277L91.5938 75.6195L92.7322 74.962L93.8714 74.3045L95.0099 73.6471L96.1484 72.9896L97.2875 72.3321L98.426 71.6746L99.5645 71.0172L100.704 70.3597L101.842 69.7022L102.981 69.0448L104.12 68.3873L105.258 67.7298L106.397 67.0723L107.536 66.4149L108.674 65.7574L109.814 65.0999L110.952 64.4431L112.091 63.7857L113.23 63.1282L114.368 62.4707L115.507 61.8132L116.646 61.1558L117.784 60.4983L118.923 59.8408L120.062 59.1833L121.2 58.5259L122.34 57.8684L123.202 57.3704C123.293 57.3172 123.383 57.2593 123.475 57.2048C123.849 56.9827 124.219 56.7476 124.587 56.5024C124.95 56.2598 125.312 56.0084 125.668 55.7447C126.021 55.4838 126.372 55.2153 126.718 54.9346H126.719C126.905 54.7834 127.089 54.626 127.274 54.4693L127.671 54.6989L128.677 55.2794ZM140.802 24.1023C140.69 23.1348 140.511 22.2225 140.268 21.3708C139.553 18.8663 138.285 16.885 136.524 15.5599L136.6 15.536L135.869 15.1116C135.79 15.0618 135.713 15.008 135.631 14.9603C135.581 14.9317 135.528 14.9079 135.477 14.8799C135.456 14.8683 135.433 14.8574 135.411 14.8452L135.347 14.8077L134.093 14.0794L132.839 13.3517L131.586 12.6234L130.333 11.8951L129.08 11.1667L127.826 10.4391L126.573 9.71076L125.32 8.98243L124.067 8.2541L122.813 7.52645L121.56 6.79812L120.307 6.06979L119.054 5.34146L117.8 4.61381L116.547 3.88548L115.293 3.15715L114.577 2.74087L114.04 2.43223L113.866 2.33207L113.876 2.36955C113.524 2.20058 113.159 2.06091 112.787 1.93964C112.381 1.80678 111.962 1.70254 111.534 1.62623C111.125 1.55333 110.707 1.50495 110.28 1.48315C109.87 1.46203 109.452 1.45999 109.027 1.48656C108.617 1.51177 108.197 1.56423 107.774 1.63304C107.362 1.70049 106.944 1.78634 106.521 1.89535C106.107 2.00164 105.69 2.12836 105.267 2.27416C104.854 2.41724 104.435 2.57939 104.014 2.76062C103.599 2.93913 103.182 3.13535 102.761 3.34996C102.413 3.52779 102.064 3.71311 101.713 3.91614C101.645 3.95566 101.576 4.00199 101.508 4.04218C101.089 4.2895 100.672 4.5559 100.254 4.83728C99.835 5.11935 99.4173 5.41913 99.0011 5.73458C98.5814 6.05207 98.1637 6.38592 97.7474 6.73612C97.571 6.88465 97.3931 7.02704 97.2174 7.1817L96.4945 6.76337L95.2409 6.03981L93.9879 5.31557L92.7343 4.59133L91.4813 3.86709L90.2277 3.14284L88.9748 2.4186L88.8242 2.33207L88.8235 2.33139C88.4672 2.08203 88.0979 1.85856 87.7211 1.65007C87.3158 1.42456 86.8961 1.22766 86.4682 1.04915C86.0601 0.878141 85.6418 0.729613 85.2146 0.600844C84.8051 0.476844 84.3875 0.371239 83.9616 0.286075C83.5508 0.204316 83.1331 0.138228 82.708 0.0918988C82.2965 0.0469317 81.8788 0.017635 81.4551 0.00605262C81.0422 -0.00484847 80.6245 -0.00144188 80.2014 0.019679C79.7886 0.0394372 79.3709 0.0748658 78.9485 0.124602C78.5342 0.174338 78.1166 0.238382 77.6949 0.316053C77.2806 0.393042 76.863 0.48502 76.4419 0.589261C76.027 0.692141 75.6093 0.810009 75.1883 0.940141C74.7734 1.06823 74.355 1.21131 73.9353 1.36596C73.5197 1.51858 73.1014 1.68482 72.6817 1.86401C72.2654 2.04115 71.8478 2.23056 71.4288 2.43291C71.0118 2.6339 70.5942 2.84647 70.1751 3.07199C69.8822 3.22937 69.5899 3.38267 69.2962 3.55232C69.1709 3.62454 69.0469 3.70834 68.9222 3.7826C68.5032 4.03196 68.0842 4.28473 67.6686 4.55454C67.2482 4.82843 66.8319 5.12139 66.4156 5.41572C65.9953 5.71278 65.5776 6.02073 65.162 6.33891C64.7423 6.65981 64.3233 6.98412 63.9091 7.32546C63.488 7.67157 63.0697 8.02517 62.6554 8.39172C62.233 8.7644 61.8174 9.15412 61.4025 9.54724C60.9801 9.94649 60.5631 10.3573 60.1489 10.7763C59.7271 11.2042 59.3088 11.6382 58.8959 12.0852C58.4735 12.5423 58.0538 13.0036 57.6423 13.4798C57.2185 13.9704 56.8002 14.4698 56.3893 14.9794C55.9635 15.5061 55.5472 16.0463 55.1357 16.5921C54.7092 17.1583 54.2922 17.7353 53.8828 18.3206C53.4549 18.931 53.0379 19.551 52.6291 20.1799C52.1999 20.8415 51.7823 21.5126 51.3762 22.1925C50.9442 22.9147 50.5266 23.6458 50.1226 24.3877C49.6886 25.1842 49.2689 25.9888 48.8689 26.805C48.4309 27.6989 48.0105 28.6017 47.616 29.5153C47.3162 30.2103 47.0267 30.9093 46.7541 31.6138C46.6247 31.6213 46.4932 31.637 46.3631 31.6513C45.9502 31.6955 45.5325 31.7691 45.1094 31.8761C44.6959 31.9797 44.2782 32.1125 43.8565 32.2753C43.4416 32.4355 43.0239 32.6235 42.6029 32.8402C42.3937 32.9478 42.1838 33.0616 41.9733 33.1835C41.7628 33.3048 41.5577 33.4472 41.3499 33.5801C40.9254 33.8512 40.5071 34.1442 40.0963 34.459C39.6705 34.786 39.2521 35.1321 38.8433 35.5014C38.4155 35.8877 37.9958 36.2904 37.5897 36.7175C37.1578 37.1727 36.7401 37.6489 36.3361 38.1442C35.8987 38.6811 35.4831 39.2418 35.0831 39.8182C34.6423 40.4525 34.2192 41.1012 33.8302 41.7729C33.3696 42.5667 32.9554 43.3856 32.5766 44.2148C32.084 45.2953 31.6568 46.395 31.3236 47.5001C30.7411 49.4282 30.4182 51.3625 30.4182 53.1966C30.4182 53.2443 30.4195 53.2906 30.4216 53.3363C30.3051 53.3479 30.1872 53.3676 30.07 53.3833C29.6571 53.4391 29.2388 53.5189 28.8164 53.6238C28.4028 53.7267 27.9852 53.85 27.5634 53.9999C27.1492 54.147 26.7309 54.3174 26.3098 54.5095C25.8956 54.6989 25.4772 54.9128 25.0569 55.1459C24.954 55.2024 24.8518 55.2555 24.7489 55.3148C24.4307 55.4988 24.1166 55.6957 23.8032 55.8994C23.3808 56.1746 22.9625 56.4649 22.5503 56.7742C22.1258 57.0931 21.7089 57.4317 21.2967 57.7839C20.8715 58.1477 20.4539 58.5293 20.0437 58.9258C19.6165 59.3387 19.1989 59.7686 18.7908 60.2135C18.3615 60.6809 17.9432 61.1646 17.5371 61.664C17.1052 62.1948 16.6875 62.7419 16.2835 63.3033C15.8482 63.909 15.4298 64.531 15.0306 65.1674C14.5891 65.8712 14.1701 66.5907 13.7769 67.3231C13.3245 68.1679 12.9042 69.0291 12.524 69.9012C12.0416 71.0063 11.6233 72.1277 11.2704 73.2512C10.4671 75.8137 10.0174 78.3911 10.0174 80.8288C10.0174 83.2264 10.4582 85.2962 11.2704 86.9784C11.6192 87.6993 12.0369 88.3452 12.524 88.9106C12.9042 89.3528 13.3157 89.7582 13.7769 90.0975C13.7933 90.1091 13.8069 90.1241 13.8233 90.1363L13.7769 90.1547L13.7735 90.1561L13.7769 90.1581L15.0306 90.8858L16.2835 91.6134L17.5371 92.3404L18.7908 93.0681L20.0437 93.7957L20.7898 94.2283L20.1057 94.6235L19.1001 95.204L18.0951 95.7845L17.0895 96.365L16.0846 96.9454L15.0789 97.5252L14.074 98.1057L13.0684 98.6862L12.0634 99.2667L11.0578 99.8472L10.0529 100.428L9.04723 101.008L8.04229 101.589L7.03666 102.169L6.03171 102.749L5.02609 103.329L4.02114 103.91L3.01552 104.49L2.01057 105.071L1.37695 105.437C1.24341 105.514 1.12145 105.6 1.00495 105.689C0.887077 105.781 0.78011 105.88 0.681319 105.982C0.244593 106.44 0 106.999 0 107.599C0 108.201 0.239824 108.781 0.681319 109.285C0.779429 109.397 0.887758 109.504 1.00495 109.608C1.21002 109.789 1.44303 109.957 1.70398 110.108L2.01057 110.285L3.01552 110.865L4.02114 111.446L5.02609 112.026L6.03171 112.606L7.03666 113.187L8.04229 113.767L9.04723 114.348L10.0529 114.927L11.0578 115.508L12.0634 116.088L13.0684 116.669L14.074 117.249L15.0789 117.829L16.0846 118.41L17.0895 118.99L18.0951 119.571L19.1001 120.151L20.1057 120.731L21.1107 121.311L22.1163 121.892L23.1212 122.472L23.5396 122.714C23.7242 122.821 23.9238 122.911 24.1269 122.998C24.1582 123.011 24.1861 123.028 24.2182 123.041C24.5084 123.159 24.8157 123.253 25.1318 123.327C25.4582 123.403 25.7947 123.45 26.1374 123.478C26.3241 123.493 26.5108 123.513 26.6995 123.513C26.8501 123.513 26.9959 123.498 27.1424 123.488C27.4919 123.464 27.8312 123.418 28.148 123.34C28.4478 123.265 28.7217 123.161 28.9785 123.041C29.0371 123.014 29.0971 122.989 29.1529 122.959C29.1904 122.939 29.2347 122.924 29.2708 122.903L30.1586 122.391L31.1635 121.81L32.1691 121.23L33.1741 120.649L34.1797 120.069L35.1847 119.489L36.1903 118.908L37.1952 118.328L38.2009 117.747L39.2058 117.167L40.2114 116.586L41.2164 116.006L42.222 115.426L43.2269 114.846L44.2326 114.265L45.2375 113.685L46.2431 113.104L47.2481 112.524L48.2537 111.943L49.2587 111.363L50.2643 110.782L51.2692 110.202L52.2749 109.622L53.2798 109.042L54.2854 108.461L55.2904 107.881L56.296 107.3L57.3009 106.72L58.3066 106.139L59.3115 105.559L60.3171 104.978L61.3221 104.398L62.3277 103.818L63.3327 103.237L64.3383 102.657L65.3432 102.076L66.3489 101.496L67.3538 100.915L68.3594 100.335L69.3644 99.7552L70.37 99.1747L71.3749 98.5942L72.3806 98.0137L73.3855 97.4333L74.3911 96.8528L75.3961 96.2723L76.4017 95.6918L77.4067 95.1113L78.4123 94.5315L79.4172 93.951L80.4229 93.3706L81.4278 92.7901L82.4334 92.2096L83.4384 91.6291L84.444 91.0486L85.4489 90.4681L86.4546 89.8877L87.4595 89.3079L88.4651 88.7274L89.4701 88.1469L90.4757 87.5664L91.4807 86.9859L92.4863 86.4054L93.4912 85.825L94.4969 85.2445L95.5018 84.664L96.5074 84.0842L97.5124 83.5037L98.518 82.9232L99.5229 82.3427L100.529 81.7623L101.534 81.1818L102.539 80.6013L103.544 80.0208L104.55 79.4403L105.555 78.8605L106.56 78.28L107.565 77.6995L108.571 77.1191L109.576 76.5386L110.581 75.9581L111.586 75.3776L112.592 74.7971L113.597 74.2173L114.603 73.6368L115.608 73.0564L116.613 72.4759L117.618 71.8954L118.624 71.3149L119.629 70.7344L120.634 70.1539L121.639 69.5735L122.645 68.9937L123.65 68.4132L124.655 67.8327L125.66 67.2522L126.666 66.6717L127.671 66.0912L128.677 65.5108L129.682 64.9303L130.687 64.3498L131.692 63.77L132.698 63.1895L133.703 62.609L134.336 62.2432C134.47 62.1662 134.592 62.0803 134.708 61.9904C134.826 61.8984 134.934 61.8003 135.032 61.6974C135.469 61.2402 135.713 60.6809 135.713 60.08C135.713 59.479 135.473 58.8986 135.032 58.3951C134.934 58.2833 134.825 58.1757 134.708 58.0721C134.503 57.8909 134.27 57.7226 134.009 57.572L133.703 57.3949L132.698 56.8144L131.692 56.2339L130.687 55.6534L129.682 55.0736L128.677 54.4932L127.819 53.9978C128.125 53.7246 128.429 53.4439 128.729 53.1571C129.055 52.845 129.376 52.5248 129.693 52.1971C130.011 51.8694 130.323 51.5349 130.631 51.1928V51.1922C130.94 50.8495 131.245 50.5006 131.544 50.1429C131.844 49.7846 132.14 49.4201 132.43 49.0481C132.722 48.6733 133.007 48.2904 133.288 47.9041C133.571 47.513 133.848 47.1158 134.119 46.7145C134.394 46.3071 134.663 45.8956 134.924 45.4786C135.189 45.0548 135.45 44.6277 135.701 44.1943C135.958 43.7522 136.205 43.3052 136.446 42.8542C136.692 42.3929 136.929 41.9269 137.158 41.4582C137.393 40.9765 137.621 40.4921 137.837 40.0042C138.06 39.4987 138.273 38.9904 138.475 38.4801C138.686 37.9487 138.883 37.4152 139.069 36.8797C139.264 36.3183 139.447 35.7562 139.614 35.1928C139.791 34.5939 139.952 33.9957 140.095 33.3975C140.157 33.1433 140.213 32.8892 140.268 32.6351C140.352 32.244 140.429 31.8543 140.498 31.4653C140.624 30.7567 140.724 30.0529 140.797 29.3539C140.882 28.5513 140.931 27.7568 140.942 26.974C140.943 26.8602 140.949 26.7458 140.949 26.6333C140.949 25.7517 140.896 24.9096 140.802 24.1023Z" fill="white"/>
</svg>
