<svg width="103" height="140" viewBox="0 0 103 140" fill="none" xmlns="http://www.w3.org/2000/svg">
<path fill-rule="evenodd" clip-rule="evenodd" d="M1.51149 19.7944L51.0057 0L100.501 19.7951L101.031 19.5824V20.0079L101.564 20.2199L101.031 20.4326V96.4192L100.767 96.5252L51.5381 116.214V116.638L51.0078 116.426L50.4755 116.638V116.214L0.981235 96.4184V20.4319L0.448856 20.2192L0.981235 20.0064V19.5817L1.51149 19.7944ZM51.0057 0.849489L2.57412 20.2192L51.0078 39.5896L76.5429 29.3773L99.4384 20.2199L51.0057 0.849489ZM2.04387 20.8574V95.993L50.4755 115.363V40.2278L2.04387 20.8574ZM99.9686 20.8581L51.5381 40.2278V115.363L99.9686 95.9937V20.8581ZM99.4918 119.243L84.1384 112.994C84.5909 112.88 85.0119 112.706 85.3837 112.476L102.013 119.243L51.0076 140L0 119.242L16.8824 112.372C17.2908 112.584 17.7433 112.745 18.2184 112.854L2.52089 119.242L51.0076 138.975L99.4918 119.243ZM5.39605 25.8985L47.1235 42.5879V110.036L5.39605 93.3467V25.8985ZM4.33342 93.7722L48.1861 111.311V42.1625L4.33342 24.6235V93.7722ZM58.962 53.8065L92.5454 40.3744V39.2165L58.962 52.6486V53.8065ZM93.608 37.9408V40.7999L93.3424 40.9059L57.8993 55.0815V52.2231L58.165 52.1171L93.608 37.9408ZM92.5454 48.8664L58.962 62.2985V61.1406L92.5454 47.7085V48.8664ZM93.608 49.2919V46.4328L58.165 60.6091L57.8993 60.7151V63.5735L93.3424 49.3979L93.608 49.2919ZM58.962 70.7906L92.5454 57.3585V56.2006L58.962 69.6327V70.7906ZM93.608 54.9249V57.784L93.3424 57.89L57.8993 72.0656V69.2072L58.165 69.1012L93.608 54.9249ZM92.5454 65.8505L58.962 79.2826V78.1247L92.5454 64.6933V65.8505ZM93.608 66.276V63.4176L58.165 77.5932L57.8993 77.6992V80.5576L93.3424 66.382L93.608 66.276ZM58.962 87.7746L92.5454 74.3425V73.1854L58.962 86.6167V87.7746ZM93.608 71.9097V74.768L93.3424 74.874L57.8993 89.0496V86.1912L58.165 86.0852L93.608 71.9097ZM92.5454 82.8354L58.962 96.2667V95.1088L92.5454 81.6774V82.8354ZM93.608 83.2608V80.4017L58.165 94.5773L57.8993 94.6833V97.5424L93.3424 83.3669L93.608 83.2608ZM85.8558 20.1759L51.0057 6.23734L16.1567 20.1759L51.0068 34.1137L85.8558 20.1759ZM51.0057 5.38785L87.9811 20.1759L51.0068 34.9632L14.0314 20.1759L51.0057 5.38785Z" fill="white"/>
</svg>
