<svg width="128" height="125" viewBox="0 0 128 125" fill="none" xmlns="http://www.w3.org/2000/svg">
<path fill-rule="evenodd" clip-rule="evenodd" d="M0.858959 34.9262L63.9467 0L64.119 0.0955518L127.036 34.9268L127.382 34.7357V35.1179L127.728 35.3097L127.382 35.5015V55.2986L127.209 55.3948L64.294 90.2254V90.6083L63.9487 90.4165L63.602 90.6083V90.2247L0.512954 55.2979V35.5008L0.16695 35.309L0.512954 35.1179V34.7344L0.858959 34.9262ZM63.9467 0.765741L1.55028 35.309L63.948 69.853L126.344 35.3097L63.9467 0.765741ZM1.20496 35.8837V54.9151L63.602 89.4583V70.4276L31.5122 52.6623L1.20496 35.8837ZM126.69 35.885L64.294 70.4276V89.4583L126.69 54.9157V35.885ZM63.9463 10.0256L18.7886 35.0525L63.9477 60.0801L109.106 35.0532L63.9463 10.0256ZM63.9463 9.25924L64.1193 9.35487L110.49 35.0532L63.9477 60.8464L63.7747 60.7508L17.4049 35.0525L63.9463 9.25924ZM4.99516 44.8036L58.7744 74.7097V80.1954L4.99516 50.2893V44.8036ZM4.30406 50.6734L59.4655 81.349V74.3257L4.30406 43.6507V50.6734ZM73.2578 76.8945L116.694 52.8631V50.0894L73.2578 74.1208V76.8945ZM72.5663 73.7384L117.385 48.9417V53.2454L72.5663 78.0422V73.7384ZM126.458 89.4247L63.9505 123.854V104.885L126.458 70.4558V89.4247ZM63.2572 123.854L0.748705 89.424V70.4551L31.1094 87.178L63.2572 104.886V123.854ZM127.151 69.6919V69.6503C127.048 69.596 126.946 69.5398 126.857 69.4723L126.804 69.5014L118.012 64.6589C117.775 64.7852 117.534 64.9075 117.291 65.0246L126.111 69.8831L63.6038 104.312L1.09533 69.8824L9.69642 65.1443C9.60921 65.0911 9.52167 65.0381 9.43407 64.9851C9.30161 64.905 9.169 64.8247 9.03714 64.7435L0.856158 69.2501C0.840822 69.2669 0.826832 69.2845 0.81288 69.3021C0.792143 69.3282 0.77149 69.3542 0.746625 69.3771C0.609513 69.5042 0.466803 69.625 0.324095 69.7459L0.324002 69.7459C0.215645 69.8377 0.107289 69.9295 0.00138649 70.0239C0.00103987 70.0269 0.000866556 70.03 0.000693245 70.0332C0.000519934 70.0363 0.000346622 70.0395 0 70.0424L0.0554596 70.0729V89.8056L63.2572 124.618V125L63.6038 124.809L63.9505 125V124.618L126.978 89.9022L127.151 89.8063V70.0742L127.249 70.02C127.237 69.9247 127.234 69.8321 127.235 69.7382L127.151 69.6919ZM18.027 69.6394L18.1061 69.6737C18.1711 69.7233 18.2407 69.7667 18.3104 69.8101C18.3373 69.8269 18.3643 69.8437 18.391 69.8609L18.3522 69.8821L63.6038 94.8073L108.846 69.8867C109.107 69.7749 109.365 69.6598 109.618 69.5401L110.24 69.8827L63.6038 95.5705L63.4305 95.4753L16.9657 69.8821L17.6825 69.4872C17.7965 69.5394 17.9118 69.5894 18.027 69.6394ZM5.02977 79.3207L58.976 109.034V114.485L5.02977 84.771V79.3207ZM4.33652 85.1527L59.6693 115.631V108.653L4.33652 78.1752V85.1527ZM73.4307 111.038L116.978 87.0518V84.2833L73.4307 108.269V111.038ZM72.7375 107.888L117.671 83.1378V87.4334L72.7375 112.183V107.888Z" fill="white"/>
</svg>
