<svg width="41" height="24" viewBox="0 0 41 24" fill="none" xmlns="http://www.w3.org/2000/svg">
<g clip-path="url(#clip0_624_2695)">
<rect width="41" height="24" rx="12" fill="#FFCD2D"/>
<path d="M12.749 16H11.4653V9.24854H9.15576V8.14746H15.0586V9.24854H12.749V16ZM24.0132 12.063C24.0132 13.3413 23.6927 14.335 23.0518 15.0439C22.4144 15.7529 21.5103 16.1074 20.3394 16.1074C19.1541 16.1074 18.2428 15.7565 17.6055 15.0547C16.9717 14.3493 16.6548 13.3485 16.6548 12.0522C16.6548 10.756 16.9735 9.76058 17.6108 9.06592C18.2518 8.37126 19.1649 8.02393 20.3501 8.02393C21.5174 8.02393 22.4198 8.37663 23.0571 9.08203C23.6945 9.78743 24.0132 10.7811 24.0132 12.063ZM18.019 12.063C18.019 13.0298 18.2142 13.7638 18.6045 14.2651C18.9948 14.7629 19.5731 15.0117 20.3394 15.0117C21.1021 15.0117 21.6768 14.7646 22.0635 14.2705C22.4538 13.7764 22.6489 13.0405 22.6489 12.063C22.6489 11.0998 22.4556 10.3693 22.0688 9.87158C21.6857 9.37386 21.1128 9.125 20.3501 9.125C19.5802 9.125 18.9984 9.37386 18.6045 9.87158C18.2142 10.3693 18.019 11.0998 18.019 12.063ZM31.8989 10.5215C31.8989 11.3415 31.6304 11.9699 31.0933 12.4067C30.5562 12.8436 29.7917 13.062 28.7998 13.062H27.9834V16H26.6997V8.14746H28.9609C29.9421 8.14746 30.6761 8.34798 31.1631 8.74902C31.6536 9.15007 31.8989 9.74089 31.8989 10.5215ZM27.9834 11.9824H28.6655C29.3244 11.9824 29.8078 11.8678 30.1157 11.6387C30.4237 11.4095 30.5776 11.0514 30.5776 10.5645C30.5776 10.1133 30.4398 9.77669 30.1641 9.55469C29.8883 9.33268 29.4587 9.22168 28.875 9.22168H27.9834V11.9824Z" fill="black"/>
</g>
<defs>
<clipPath id="clip0_624_2695">
<rect width="41" height="24" fill="white"/>
</clipPath>
</defs>
</svg>
