<svg width="44" height="25" viewBox="0 0 44 25" fill="none" xmlns="http://www.w3.org/2000/svg">
<g clip-path="url(#clip0_630_39)">
<rect y="0.25" width="44" height="24.5" rx="12.25" fill="#3F6DD6"/>
<path d="M15.5786 16.25H14.0049L10.1431 9.99268H10.1001L10.127 10.3418C10.1771 11.0078 10.2021 11.6165 10.2021 12.168V16.25H9.03662V8.39746H10.5942L14.4453 14.6226H14.4775C14.4704 14.5402 14.4561 14.2412 14.4346 13.7256C14.4131 13.2064 14.4023 12.8018 14.4023 12.5117V8.39746H15.5786V16.25ZM23.0938 16.25H18.6519V8.39746H23.0938V9.48242H19.9355V11.6201H22.895V12.6943H19.9355V15.1597H23.0938V16.25ZM33.042 16.25H31.6455L30.3135 11.5664C30.2562 11.3623 30.1846 11.0687 30.0986 10.6855C30.0127 10.2988 29.9608 10.0303 29.9429 9.87988C29.9071 10.109 29.848 10.4062 29.7656 10.7715C29.6868 11.1367 29.6206 11.4089 29.5669 11.5879L28.2671 16.25H26.8706L25.8555 12.3184L24.8242 8.39746H26.1348L27.2573 12.9736C27.4328 13.7077 27.5581 14.3558 27.6333 14.918C27.6727 14.6136 27.7318 14.2734 27.8105 13.8975C27.8893 13.5215 27.9609 13.2171 28.0254 12.9844L29.3037 8.39746H30.5767L31.8872 13.0059C32.0125 13.432 32.145 14.0693 32.2847 14.918C32.3384 14.4059 32.4673 13.7542 32.6714 12.9629L33.7886 8.39746H35.0884L33.042 16.25Z" fill="white"/>
</g>
<defs>
<clipPath id="clip0_630_39">
<rect width="44" height="24.5" fill="white" transform="translate(0 0.25)"/>
</clipPath>
</defs>
</svg>
